HIERARCHY
ROOT Hip
{
	OFFSET 0 1.131 0.0052
	CHANNELS 6 Xposition Yposition Zposition Xrotation Yrotation Zrotation
	JOINT Abdomen
	{
		OFFSET 0 -0.047353 -0.05
		CHANNELS 3 Xrotation Zrotation Yrotation
		JOINT Chest
		{
			OFFSET 0 0.132153 0.007439
			CHANNELS 3 Xrotation Zrotation Yrotation
			JOINT Neck
			{
				OFFSET 0 0.3078 0.006161
				CHANNELS 3 Xrotation Zrotation Yrotation
				JOINT Head_comp
				{
					OFFSET 0 0.0884 0.013
					CHANNELS 3 Xrotation Yrotation Zrotation
					End Site
					{
						OFFSET -0 0.156 0.0624
					}
				}
			}
			JOINT Left_Collar
			{
				OFFSET 0.02282 0.250342 0.017193
				CHANNELS 2 Yrotation Zrotation
				JOINT Left_Shoulder
				{
					OFFSET 0.15421 0 0
					CHANNELS 3 Xrotation Yrotation Zrotation
					JOINT Left_Forearm
					{
						OFFSET 0.265212 0 0
						CHANNELS 2 Yrotation Xrotation
						JOINT Left_Hand
						{
							OFFSET 0.27571 0 0
							CHANNELS 2 Zrotation Yrotation
							JOINT L1ProxPhalanx
							{
								OFFSET 0.014142 0.001733 0.014142
								CHANNELS 3 Yrotation Zrotation Xrotation
								JOINT L1MidPhalanx
								{
									OFFSET 0.04 0 0
									CHANNELS 1 Zrotation
									JOINT L1DistPhalanx
									{
										OFFSET 0.035 0 0
										CHANNELS 1 Zrotation
										End Site
										{
											OFFSET 0.029 -0 -0
										}
									}
								}
							}
							JOINT L2ProxPhalanx
							{
								OFFSET 0.0821037 0.001578 0.0219996
								CHANNELS 2 Yrotation Zrotation
								JOINT L2MidPhalanx
								{
									OFFSET 0.04 0 0
									CHANNELS 1 Zrotation
									JOINT L2DistPhalanx
									{
										OFFSET 0.028 0 0
										CHANNELS 1 Zrotation
										End Site
										{
											OFFSET 0.02 -0 -0
										}
									}
								}
							}
							JOINT L3ProxPhalanx
							{
								OFFSET 0.083 0 0
								CHANNELS 2 Yrotation Zrotation
								JOINT L3MidPhalanx
								{
									OFFSET 0.053 0 0
									CHANNELS 1 Zrotation
									JOINT L3DistPhalanx
									{
										OFFSET 0.03 0 0
										CHANNELS 1 Zrotation
										End Site
										{
											OFFSET 0.023 -0 -0
										}
									}
								}
							}
							JOINT L4ProxPhalanx
							{
								OFFSET 0.077274 -0.000761 -0.0207055
								CHANNELS 2 Yrotation Zrotation
								JOINT L4MidPhalanx
								{
									OFFSET 0.05 0 0
									CHANNELS 1 Zrotation
									JOINT L4DistPhalanx
									{
										OFFSET 0.03 0 0
										CHANNELS 1 Zrotation
										End Site
										{
											OFFSET 0.023 -0 -0
										}
									}
								}
							}
							JOINT L5ProxPhalanx
							{
								OFFSET 0.0675499 -0.001644 -0.039
								CHANNELS 2 Yrotation Zrotation
								JOINT L5MidPhalanx
								{
									OFFSET 0.04 0 0
									CHANNELS 1 Zrotation
									JOINT L5DistPhalanx
									{
										OFFSET 0.021 0 0
										CHANNELS 1 Zrotation
										End Site
										{
											OFFSET 0.022 -0 -0
										}
									}
								}
							}
						}
					}
				}
			}
			JOINT Right_Collar
			{
				OFFSET -0.02282 0.250342 0.017193
				CHANNELS 2 Yrotation Zrotation
				JOINT Right_Shoulder
				{
					OFFSET -0.15421 0 0
					CHANNELS 3 Xrotation Yrotation Zrotation
					JOINT Right_Forearm
					{
						OFFSET -0.265212 0 0
						CHANNELS 2 Yrotation Xrotation
						JOINT Right_Hand
						{
							OFFSET -0.27571 3e-006 0
							CHANNELS 2 Zrotation Yrotation
							JOINT R1ProxPhalanx
							{
								OFFSET -0.014142 0.001733 0.014142
								CHANNELS 3 Yrotation Zrotation Xrotation
								JOINT R1MidPhalanx
								{
									OFFSET -0.04 0 0
									CHANNELS 1 Zrotation
									JOINT R1DistPhalanx
									{
										OFFSET -0.035 0 0
										CHANNELS 1 Zrotation
										End Site
										{
											OFFSET -0.029 -0 -0
										}
									}
								}
							}
							JOINT R2ProxPhalanx
							{
								OFFSET -0.0821037 0.001578 0.0219996
								CHANNELS 2 Yrotation Zrotation
								JOINT R2MidPhalanx
								{
									OFFSET -0.04 0 0
									CHANNELS 1 Zrotation
									JOINT R2DistPhalanx
									{
										OFFSET -0.028 0 0
										CHANNELS 1 Zrotation
										End Site
										{
											OFFSET -0.02 -0 -0
										}
									}
								}
							}
							JOINT R3ProxPhalanx
							{
								OFFSET -0.083 0 0
								CHANNELS 2 Yrotation Zrotation
								JOINT R3MidPhalanx
								{
									OFFSET -0.053 0 0
									CHANNELS 1 Zrotation
									JOINT R3DistPhalanx
									{
										OFFSET -0.03 0 0
										CHANNELS 1 Zrotation
										End Site
										{
											OFFSET -0.023 -0 -0
										}
									}
								}
							}
							JOINT R4ProxPhalanx
							{
								OFFSET -0.077274 -0.000761 -0.0207055
								CHANNELS 2 Yrotation Zrotation
								JOINT R4MidPhalanx
								{
									OFFSET -0.05 0 0
									CHANNELS 1 Zrotation
									JOINT R4DistPhalanx
									{
										OFFSET -0.03 0 0
										CHANNELS 1 Zrotation
										End Site
										{
											OFFSET -0.023 -0 -0
										}
									}
								}
							}
							JOINT R5ProxPhalanx
							{
								OFFSET -0.0675499 -0.001644 -0.039
								CHANNELS 2 Yrotation Zrotation
								JOINT R5MidPhalanx
								{
									OFFSET -0.04 0 0
									CHANNELS 1 Zrotation
									JOINT R5DistPhalanx
									{
										OFFSET -0.021 0 0
										CHANNELS 1 Zrotation
										End Site
										{
											OFFSET -0.022 -0 -0
										}
									}
								}
							}
						}
					}
				}
			}
		}
	}
	JOINT Left_Thigh
	{
		OFFSET 0.1118 -0.1612 -0.0442
		CHANNELS 3 Xrotation Zrotation Yrotation
		JOINT Left_Shin
		{
			OFFSET 0 -0.477856 0
			CHANNELS 1 Xrotation
			JOINT Left_Foot
			{
				OFFSET 0 -0.431952 0
				CHANNELS 2 Xrotation Zrotation
				JOINT Left_Toe
				{
					OFFSET 0 -0.0442 0.119
					CHANNELS 1 Xrotation
					End Site
					{
						OFFSET -0 -0 0.07
					}
				}
			}
		}
	}
	JOINT Right_Thigh
	{
		OFFSET -0.1118 -0.1612 -0.0442
		CHANNELS 3 Xrotation Zrotation Yrotation
		JOINT Right_Shin
		{
			OFFSET 0 -0.477856 0
			CHANNELS 1 Xrotation
			JOINT Right_Foot
			{
				OFFSET 0 -0.431952 0
				CHANNELS 2 Xrotation Zrotation
				JOINT Right_Toe
				{
					OFFSET 0 -0.0442 0.119
					CHANNELS 1 Xrotation
					End Site
					{
						OFFSET -0 -0 0.07
					}
				}
			}
		}
	}
}
MOTION
Frames: 9
Frame Time: 0.009975
-0.101351 -0.0603097 0.0606505 -1.32337e-013 1.21601e-007 -5.10821e-006 0 0 0 0 0 0 0 0 0 0 0 0 0 0 -0 0 -0 0 0 0 0 -36.7832 -29.9624 77.4898 -4.76427 -12.2444 -6.63439 -16.4575 -31.3511 -13.5114 -0.647911 -24.507 -18.2419 -18.0941 9.02909 -22.0218 -38.2405 -19.3412 17.3445 -18.4185 -40.523 -37.4487 0 0 -0 0 -0 0 0 0 0 37.9386 28.008 73.698 26.2405 28.4472 13.118 18.2167 29.0248 19.6359 0 22.4358 32.6146 28.1246 -8.63175 30.7051 32.2053 23.7634 -7.83088 26.7354 35.1526 30.0193 1.35227 -0.658014 -0.0155328 0.0240216 -1.3762 0.658202 0 1.36367 -0.65801 -0.0156637 2.83165e-006 -1.36358 0.658202 0 
-0.101351 -0.0603097 0.0606505 -1.32337e-013 1.21601e-007 -5.10821e-006 0 0 0 0 0 0 0 0 0 0 0 0 0 0 -0 0 -0 0 0 0 0 -36.7832 -29.9624 77.4898 -4.76427 -12.2444 -6.63439 -16.4575 -31.3511 -13.5114 -0.647911 -24.507 -18.2419 -18.0941 9.02909 -22.0218 -38.2405 -19.3412 17.3445 -18.4185 -40.523 -37.4487 0 0 -0 0 -0 0 0 0 0 37.9386 28.008 73.698 26.2405 28.4472 13.118 18.2167 29.0248 19.6359 0 22.4358 32.6146 28.1246 -8.63175 30.7051 32.2053 23.7634 -7.83088 26.7354 35.1526 30.0193 1.35227 -0.658014 -0.0155328 0.0240216 -1.3762 0.658202 0 1.36367 -0.65801 -0.0156637 2.83165e-006 -1.36358 0.658202 0 
-0.0940248 -0.0601707 0.0362586 -3.75303e-012 -1.54013e-008 -5.08473e-006 0 -0 0 0 -0 0 0 -0 0 -0.710235 0.285356 -8.8877e-006 -4.56722 -30.4123 -14.391 -40.598 -52.3764 -52.3557 9.57761 13.0289 10.4131 -91.0609 35.2412 82.3954 -22.5372 -26.7568 12.4775 1.79634 -11.1467 -4.17021 8.14614 0.491631 -4.85361 0.840164 1.2951 -14.7327 21.8048 -2.26644 -3.61201 -48.8371 54.7532 18.3648 6.1594 23.9585 -17.4033 26.2321 32.9674 46.0798 3.94921 7.28396 -0.0864267 78.4162 -14.2156 83.4363 14.5087 7.27576 -1.43158 -0.131517 11.5978 7.71088 -2.02705 8.78646 2.57358 5.71608 2.99056 21.9058 -4.73319 -7.69137 1.71932 41.9412 -29.8607 -23.3068 -0.184026 -1.11947 0.00360442 0.0239015 0.160089 1.11948 0 -0.172676 -1.11947 0.00338211 2.40276e-006 0.172641 1.11948 0 
-0.0939753 -0.0601743 0.0352719 -3.7719e-012 -1.54787e-008 -5.11029e-006 0 -0 0 0 -0 0 0 -0 0 -0.712064 0.269421 -1.99376e-009 -4.58962 -30.565 -13.0006 -40.7555 -49.8143 -53.6652 9.62231 13.0942 10.4652 -91.3003 35.5292 82.5277 -22.4746 -26.7907 12.5435 1.95528 -11.0017 -4.11578 8.18596 0.65449 -4.677 0.934838 1.29408 -14.6459 22.1154 -2.18738 -3.65954 -48.9617 55.1992 18.5576 6.18989 24.0787 -17.0785 26.5357 31.3057 46.738 3.96796 7.32057 -0.0868604 78.5456 -14.4062 83.4959 14.4058 7.21182 -1.44351 -0.282869 11.455 7.67425 -2.03709 8.66983 2.38551 5.65435 3.01307 21.8551 -4.95798 -7.82047 1.75778 42.0312 -30.1816 -23.5244 -0.246234 -1.12258 0.00482415 0.0240216 0.222165 1.1226 0 -0.234827 -1.12259 0.00460067 2.41484e-006 0.23478 1.1226 0 
-0.0940024 -0.0601738 0.0352512 7.63789e-013 -2.09859e-008 -5.11026e-006 0 -0 0 0 -0 0 0 -0 0 -0.712031 0.269617 5.64172e-013 -4.58962 -30.565 -12.9901 -40.7548 -49.7964 -53.6731 9.62231 13.0942 10.4652 -91.3003 35.5292 82.5277 -22.4746 -26.7907 12.5435 1.95528 -11.0017 -4.11578 8.18596 0.65449 -4.677 0.934838 1.29408 -14.6459 22.1154 -2.18738 -3.65954 -48.9617 55.1992 18.5576 6.18989 24.0787 -17.0759 26.5368 31.2953 46.7412 3.96796 7.32057 -0.0868604 78.5456 -14.4062 83.4959 14.4058 7.21182 -1.44351 -0.282869 11.455 7.67425 -2.03709 8.66983 2.38551 5.65435 3.01307 21.8551 -4.95798 -7.82047 1.75778 42.0312 -30.1816 -23.5244 -0.247536 -1.12088 0.00484229 0.0240216 0.223467 1.12089 0 -0.236129 -1.12088 0.00461915 1.70755e-008 0.236084 1.12089 0 
-0.0940029 -0.0601738 0.035251 2.29475e-012 -2.10614e-008 -5.11026e-006 0 -0 0 0 -0 0 0 -0 0 -0.71203 0.269636 7.95924e-016 -4.58962 -30.565 -12.9901 -40.7548 -49.7964 -53.6731 9.62231 13.0942 10.4652 -91.3003 35.5292 82.5277 -22.4746 -26.7907 12.5435 1.95528 -11.0017 -4.11578 8.18596 0.65449 -4.677 0.934838 1.29408 -14.6459 22.1154 -2.18738 -3.65954 -48.9617 55.1992 18.5576 6.18989 24.0787 -17.0759 26.5368 31.2953 46.7412 3.96796 7.32057 -0.0868604 78.5456 -14.4062 83.4959 14.4058 7.21182 -1.44351 -0.282869 11.455 7.67425 -2.03709 8.66983 2.38551 5.65435 3.01307 21.8551 -4.95798 -7.82047 1.75778 42.0312 -30.1816 -23.5244 -0.247551 -1.12085 0.00484246 0.0240216 0.223482 1.12086 0 -0.236144 -1.12085 0.00461932 1.6862e-006 0.236097 1.12086 0 
-0.0940029 -0.0601738 0.035251 2.09962e-012 -2.1062e-008 -5.11026e-006 0 -0 0 0 -0 0 0 -0 0 -0.71203 0.269636 -3.88256e-019 -4.58962 -30.565 -12.9901 -40.7548 -49.7964 -53.6731 9.62231 13.0942 10.4652 -91.3003 35.5292 82.5277 -22.4746 -26.7907 12.5435 1.95528 -11.0017 -4.11578 8.18596 0.65449 -4.677 0.934838 1.29408 -14.6459 22.1154 -2.18738 -3.65954 -48.9617 55.1992 18.5576 6.18989 24.0787 -17.0759 26.5368 31.2953 46.7412 3.96796 7.32057 -0.0868604 78.5456 -14.4062 83.4959 14.4058 7.21182 -1.44351 -0.282869 11.455 7.67425 -2.03709 8.66983 2.38551 5.65435 3.01307 21.8551 -4.95798 -7.82047 1.75778 42.0312 -30.1816 -23.5244 -0.247551 -1.12085 0.00484246 0.0240216 0.223482 1.12086 0 -0.236144 -1.12085 0.00461933 1.70755e-006 0.236097 1.12086 0 
-0.0940029 -0.0601738 0.035251 2.27681e-012 -2.1062e-008 -5.11026e-006 0 -0 0 0 -0 0 0 -0 0 -0.71203 0.269636 -1.94128e-019 -4.58962 -30.565 -12.9901 -40.7548 -49.7964 -53.6731 9.62231 13.0942 10.4652 -91.3003 35.5292 82.5277 -22.4746 -26.7907 12.5435 1.95528 -11.0017 -4.11578 8.18596 0.65449 -4.677 0.934838 1.29408 -14.6459 22.1154 -2.18738 -3.65954 -48.9617 55.1992 18.5576 6.18989 24.0787 -17.0759 26.5368 31.2953 46.7412 3.96796 7.32057 -0.0868604 78.5456 -14.4062 83.4959 14.4058 7.21182 -1.44351 -0.282869 11.455 7.67425 -2.03709 8.66983 2.38551 5.65435 3.01307 21.8551 -4.95798 -7.82047 1.75778 42.0312 -30.1816 -23.5244 -0.247551 -1.12085 0.00484246 0.0240216 0.223482 1.12086 0 -0.236144 -1.12085 0.00461933 2.98821e-008 0.236097 1.12086 0 
-0.0940029 -0.0601738 0.035251 -2.60246e-012 -2.1062e-008 -5.11026e-006 0 -0 0 0 -0 0 0 -0 0 -0.71203 0.269636 -1.94128e-019 -4.58962 -30.565 -12.9901 -40.7548 -49.7964 -53.6731 9.62231 13.0942 10.4652 -91.3003 35.5292 82.5277 -22.4746 -26.7907 12.5435 1.95528 -11.0017 -4.11578 8.18596 0.65449 -4.677 0.934838 1.29408 -14.6459 22.1154 -2.18738 -3.65954 -48.9617 55.1992 18.5576 6.18989 24.0787 -17.0759 26.5368 31.2953 46.7412 3.96796 7.32057 -0.0868604 78.5456 -14.4062 83.4959 14.4058 7.21182 -1.44351 -0.282869 11.455 7.67425 -2.03709 8.66983 2.38551 5.65435 3.01307 21.8551 -4.95798 -7.82047 1.75778 42.0312 -30.1816 -23.5244 -0.247551 -1.12085 0.00484246 0.0240216 0.223482 1.12086 0 -0.236144 -1.12085 0.00461933 1.6734e-006 0.236098 1.12086 0 
